<svg width="500" height="500" viewBox="0 0 500 500" fill="none" xmlns="http://www.w3.org/2000/svg">
<path d="M37.8067 264.144C13.6276 290.114 -5.17844 358.174 4.67233 393.995C17.2395 439.693 76.0588 469.075 130.06 452.255C184.687 435.24 319.911 343.896 326.18 338.523C335.626 330.426 380.792 436.98 388.852 444.144C396.912 451.309 405.867 456.682 413.031 456.682H497.211L396.912 273.099L478.405 183.547L125.568 350.114C87.0605 361.756 7.00068 350.831 37.8067 264.144Z" fill="#27C840"/>
<path d="M164.971 86.8304L62.8814 281.159C53.0306 305.338 73.2217 347.683 125.568 319.666C186.464 287.074 181.986 205.04 225.867 185.338C253.787 172.802 263.265 250.001 279.598 242.652C297.509 234.592 339.3 216.084 356.613 204.144L285.867 77.8751C269.747 47.4273 203.361 13.7557 164.971 86.8304Z" fill="#27C840"/>
<circle cx="420.21" cy="97.627" r="54.627" fill="#27C840"/>
</svg>
